<?xml version="1.0" encoding="UTF-8" standalone="no"?>
<!-- Created with Inkscape (http://www.inkscape.org/) -->

<svg
   xmlns:osb="http://www.openswatchbook.org/uri/2009/osb"
   xmlns:dc="http://purl.org/dc/elements/1.1/"
   xmlns:cc="http://creativecommons.org/ns#"
   xmlns:rdf="http://www.w3.org/1999/02/22-rdf-syntax-ns#"
   xmlns:svg="http://www.w3.org/2000/svg"
   xmlns="http://www.w3.org/2000/svg"
   xmlns:xlink="http://www.w3.org/1999/xlink"
   xmlns:sodipodi="http://sodipodi.sourceforge.net/DTD/sodipodi-0.dtd"
   xmlns:inkscape="http://www.inkscape.org/namespaces/inkscape"
   version="1.1"
   id="svg2"
   xml:space="preserve"
   width="521.83154"
   height="305.30048"
   viewBox="0 0 521.83154 305.30048"
   sodipodi:docname="recaman_box_n_33_fillline.svg.svg"
   inkscape:version="0.92.2 2405546, 2018-03-11"
   inkscape:export-filename="D:\Pictures\recaman\recaman_box_n_33_fillline.png"
   inkscape:export-xdpi="90.559998"
   inkscape:export-ydpi="90.559998"><metadata
     id="metadata8"><rdf:RDF><cc:Work
         rdf:about=""><dc:format>image/svg+xml</dc:format><dc:type
           rdf:resource="http://purl.org/dc/dcmitype/StillImage" /><dc:title /></cc:Work></rdf:RDF></metadata><defs
     id="defs6"><linearGradient
       inkscape:collect="always"
       id="linearGradient2732"><stop
         style="stop-color:#faffaa;stop-opacity:0.47058824"
         offset="0"
         id="stop2728" /><stop
         style="stop-color:#d5f6ff;stop-opacity:0.176"
         offset="1"
         id="stop2730" /></linearGradient><linearGradient
       id="linearGradient2702"
       osb:paint="solid"><stop
         style="stop-color:#aaeeff;stop-opacity:1;"
         offset="0"
         id="stop2700" /></linearGradient><linearGradient
       inkscape:collect="always"
       id="linearGradient6166"><stop
         style="stop-color:#2a7fff;stop-opacity:1"
         offset="0"
         id="stop6162" /><stop
         id="stop6170"
         offset="0.153668"
         style="stop-color:#003373;stop-opacity:1" /><stop
         style="stop-color:#782167;stop-opacity:1"
         offset="0.28156495"
         id="stop6172" /><stop
         id="stop6174"
         offset="0.66760254"
         style="stop-color:#d40000;stop-opacity:1" /><stop
         style="stop-color:#ffcc00;stop-opacity:1"
         offset="0.90579599"
         id="stop6176" /><stop
         style="stop-color:#ffdd55;stop-opacity:1"
         offset="1"
         id="stop6164" /></linearGradient><linearGradient
       id="linearGradient4667-3"
       osb:paint="gradient"><stop
         style="stop-color:#ffffff;stop-opacity:0.6"
         offset="0"
         id="stop4663" /><stop
         style="stop-color:#1f77b4;stop-opacity:0;"
         offset="1"
         id="stop4665" /></linearGradient><clipPath
       clipPathUnits="userSpaceOnUse"
       id="clipPath20"><path
         d="M 8,7 V 2610 H 4930 V 7 Z"
         id="path18"
         inkscape:connector-curvature="0" /></clipPath><clipPath
       clipPathUnits="userSpaceOnUse"
       id="clipPath30"><path
         d="m 360.93,245.852 h 4464 v 2260 h -4464 z"
         id="path28"
         inkscape:connector-curvature="0" /></clipPath><clipPath
       clipPathUnits="userSpaceOnUse"
       id="clipPath102"><path
         d="M 8,7 V 2610 H 4930 V 7 Z"
         id="path100"
         inkscape:connector-curvature="0" /></clipPath><linearGradient
       inkscape:collect="always"
       xlink:href="#linearGradient6166"
       id="linearGradient6168"
       x1="49.994141"
       y1="164.55176"
       x2="641.46289"
       y2="164.55176"
       gradientUnits="userSpaceOnUse" /><linearGradient
       inkscape:collect="always"
       xlink:href="#linearGradient4667-3"
       id="linearGradient6293"
       gradientUnits="userSpaceOnUse"
       gradientTransform="translate(-28.454397,3.4700454)"
       x1="322.73993"
       y1="190.92413"
       x2="394.23053"
       y2="369.4501" /><filter
       style="color-interpolation-filters:sRGB"
       x="-0.25"
       width="1.5"
       y="-0.25"
       height="1.5"
       inkscape:menu="Non-realistic 3D Shaders"
       inkscape:menu-tooltip="Satiny glass effect"
       inkscape:label="Frosted Glass"
       id="filter6421"><feGaussianBlur
         in="SourceGraphic"
         result="result8"
         stdDeviation="5"
         id="feGaussianBlur6401" /><feComposite
         result="result18"
         operator="xor"
         in2="result8"
         in="SourceGraphic"
         id="feComposite6403" /><feComposite
         in2="result18"
         result="result16"
         operator="arithmetic"
         k2="0.5"
         k1="1"
         in="result8"
         id="feComposite6405"
         k3="0"
         k4="0" /><feComposite
         in="result16"
         operator="atop"
         result="result6"
         in2="result8"
         id="feComposite6407" /><feOffset
         in="result6"
         result="result17"
         id="feOffset6409" /><feDisplacementMap
         result="result4"
         scale="100"
         yChannelSelector="A"
         xChannelSelector="A"
         in="result17"
         in2="result16"
         id="feDisplacementMap6411" /><feComposite
         k3="1"
         in="result17"
         operator="arithmetic"
         result="result2"
         in2="result4"
         id="feComposite6413"
         k1="0"
         k2="0"
         k4="0" /><feComposite
         operator="out"
         in="result2"
         result="fbSourceGraphic"
         in2="result17"
         id="feComposite6415" /><feComposite
         result="result14"
         operator="over"
         in2="fbSourceGraphic"
         in="fbSourceGraphic"
         id="feComposite6417" /><feComposite
         in="result14"
         operator="in"
         in2="SourceGraphic"
         result="result15"
         id="feComposite6419" /></filter><linearGradient
       inkscape:collect="always"
       xlink:href="#linearGradient2732"
       id="linearGradient2734"
       x1="578.14191"
       y1="337.58987"
       x2="188.83485"
       y2="118.24597"
       gradientUnits="userSpaceOnUse"
       gradientTransform="matrix(0.95658098,0,0,1.0002868,0.58657572,-0.04566054)" /></defs><sodipodi:namedview
     pagecolor="#ffffff"
     bordercolor="#666666"
     borderopacity="1"
     objecttolerance="10"
     gridtolerance="10"
     guidetolerance="10"
     inkscape:pageopacity="1"
     inkscape:pageshadow="2"
     inkscape:window-width="1920"
     inkscape:window-height="1023"
     id="namedview4"
     showgrid="false"
     inkscape:zoom="1.6974561"
     inkscape:cx="201.65587"
     inkscape:cy="75.720467"
     inkscape:window-x="0"
     inkscape:window-y="30"
     inkscape:window-maximized="1"
     inkscape:current-layer="layer3"
     showguides="false"
     inkscape:pagecheckerboard="true" /><g
     inkscape:groupmode="layer"
     id="layer2"
     inkscape:label="background"
     style="display:inline"
     transform="translate(-12.524059,-6.5791252)"><rect
       y="8.5169191"
       x="14.461853"
       height="301.4249"
       width="517.95593"
       id="rect909"
       style="opacity:1;fill:#ffffff;fill-opacity:0.47058824;stroke:none;stroke-width:3.87558794;stroke-linecap:square;stroke-miterlimit:4;stroke-dasharray:none;stroke-opacity:1" /><rect
       style="opacity:0.86299995;fill:url(#linearGradient2734);fill-opacity:1;stroke:#192b33;stroke-width:3.87558794;stroke-linecap:square;stroke-miterlimit:4;stroke-dasharray:none;stroke-opacity:1"
       id="rect891"
       width="517.95593"
       height="301.4249"
       x="14.461838"
       y="8.5169191"
       inkscape:export-xdpi="110.56"
       inkscape:export-ydpi="110.56" /></g><g
     style="display:inline"
     transform="matrix(1.3333333,0,0,-1.3333333,-12.524059,341.42087)"
     inkscape:label="recaman"
     inkscape:groupmode="layer"
     id="g4661"><g
       transform="scale(0.1)"
       id="g4649"><g
         id="g4647"
         clip-path="url(#clipPath20)" /></g><g
       transform="scale(0.1)"
       id="g4659"><g
         id="g4657"
         clip-path="url(#clipPath102)" /></g></g><g
     inkscape:groupmode="layer"
     id="layer1"
     inkscape:label="glow"
     style="display:inline"
     transform="translate(-12.524059,-6.5791252)"><g
       id="g913"
       transform="matrix(0.87715337,0,0,0.87715337,2.8224637,0.13927512)"><g
         id="g4655"
         transform="matrix(0.09111926,0,0,-0.09111926,-9.9150792,250.78781)"
         style="display:inline"><g
           clip-path="url(#clipPath30)"
           id="g4653"><path
             style="opacity:0.97000002;fill:url(#linearGradient6168);fill-opacity:1;fill-rule:nonzero;stroke:none;stroke-width:0.13333333"
             d="m 180.60352,15.751953 v 65.304688 h -55.97461 v 81.162109 26.12305 h -5.59766 v -26.12305 -25.1875 H 68.652344 v 25.1875 7.46484 h -5.595703 v -7.46484 -6.5293 h -13.0625 v 6.5293 h 3.732421 v -2.79687 h 5.597657 v 2.79687 11.19531 h 9.328125 v 9.33008 H 109.70117 V 162.21875 146.35938 H 77.982422 v 15.85937 7.46484 h -5.597656 v -7.46484 -21.45703 h 42.914064 v 21.45703 29.85547 h 9.33008 v 46.64453 h 55.97461 v 74.63281 h 302.26367 v -46.64648 h 158.5957 V 162.21875 62.396484 H 473.53906 V 15.751953 Z m 3.73046,3.730469 h 285.47266 v 42.914062 h -5.59766 V 25.082031 H 189.93164 v 55.97461 h -5.59766 z m 9.33008,9.330078 h 266.8125 v 33.583984 h -5.5957 V 34.410156 H 199.26172 v 46.646485 h -5.59766 z m 9.33008,9.328125 h 248.1543 v 24.255859 h -5.59766 V 43.738281 H 208.58984 v 37.31836 h -5.5957 z m 9.32813,9.330078 H 441.81836 V 162.21875 244.31641 H 436.2207 V 162.21875 53.068359 H 217.91992 v 27.988282 h -5.59765 z m 9.32812,9.330078 H 432.49023 V 162.21875 244.31641 H 286.95508 V 162.21875 81.056641 h -65.30469 z m 223.90039,9.328125 h 5.59766 v 96.089844 82.09766 h -5.59766 v -82.09766 z m 9.33008,0 h 5.5957 v 5.597656 h -5.5957 z m 9.32812,0 h 5.59766 v 5.597656 h -5.59766 z m 9.33008,0 H 637.73242 V 162.21875 262.97461 H 482.86719 v -5.59766 H 632.13281 V 162.21875 71.726562 H 473.53906 Z m -18.6582,9.330078 h 5.5957 v 86.759766 91.42578 h -5.5957 v -91.42578 z m 9.32812,0 h 5.59766 v 86.759766 91.42578 h -5.59766 v -91.42578 z m 9.33008,0 h 154.86328 v 86.759766 91.42578 H 482.86719 v -91.42578 h -3.73047 v 91.42578 h -5.59766 v -91.42578 z m -345.17968,9.328125 h 52.24414 v 5.597657 h -46.64649 v 71.833984 26.12305 h -5.59765 v -26.12305 z m 55.9746,0 h 5.59766 v 5.597657 h -5.59766 z m 9.33008,0 h 5.59766 v 5.597657 h -5.59766 z m 9.33008,0 h 5.5957 v 5.597657 h -5.5957 z m 9.32813,0 h 5.59765 v 5.597657 h -5.59765 z m 9.32812,0 h 61.57422 v 77.431641 85.82813 h 149.26562 v 18.6582 h 9.32813 v 5.59765 H 221.65039 v -33.58398 h 55.97656 v -76.5 -71.833984 h -55.97656 z m -83.96094,9.328125 h 42.91407 v 5.59961 h -37.31641 v 62.503906 26.12305 h -5.59766 v -26.12305 z m 46.64453,0 h 5.59766 v 5.59961 h -5.59766 z m 9.33008,0 h 5.59766 v 5.59961 h -5.59766 z m 9.33008,0 h 5.5957 v 5.59961 h -5.5957 z m 9.32813,0 h 5.59765 v 5.59961 h -5.59765 z m 9.32812,0 h 52.24414 v 68.103516 72.76758 h -52.24414 v -5.59766 h 46.64649 V 162.21875 99.714844 h -46.64649 z m -74.63086,9.330076 h 33.58399 v 5.59766 h -27.98829 v 53.17578 26.12305 h -5.5957 v -26.12305 z m 37.31445,0 h 5.59766 v 5.59766 h -5.59766 z m 9.33008,0 h 5.59766 v 5.59766 h -5.59766 z m 9.33008,0 h 5.5957 v 5.59766 h -5.5957 z m 9.32813,0 h 5.59765 v 5.59766 h -5.59765 z m 9.32812,0 h 42.91406 v 58.77344 63.43945 h -42.91406 v -5.59765 h 37.31836 v -57.8418 -53.17578 h -37.31836 z m -65.30273,9.33008 h 24.25586 v 5.5957 h -18.65821 v 43.84766 26.12305 h -5.59765 v -26.12305 z m 27.98632,0 h 5.59766 v 5.5957 h -5.59766 z m 9.33008,0 h 5.59766 v 5.5957 h -5.59766 z m 9.33008,0 h 5.5957 v 5.5957 h -5.5957 z m 9.32813,0 h 5.59765 v 5.5957 h -5.59765 z m 9.32812,0 h 33.58594 v 49.44336 54.10937 h -33.58594 v -5.59765 h 27.98828 v -48.51172 -43.84766 h -27.98828 z m -55.97461,9.32813 h 14.92774 v 5.59765 h -9.33008 v 34.51758 26.12305 h -5.59766 v -26.12305 z m 18.6582,0 h 5.59766 v 5.59765 h -5.59766 z m 9.33008,0 h 5.59766 v 5.59765 h -5.59766 z m 9.33008,0 h 5.5957 v 5.59765 h -5.5957 z m 9.32813,0 h 5.59765 v 5.59765 h -5.59765 z m 9.32812,0 h 24.25586 V 162.21875 207 h -24.25586 v -5.59766 h 18.6582 v -39.18359 -34.51758 h -18.6582 z m -46.64453,9.33007 h 5.59766 v 30.78516 35.45117 h -14.92774 v -5.5957 h 9.33008 v -29.85547 z m 9.32812,0 h 5.59766 v 30.78516 35.45117 h -5.59766 v -35.45117 z m 9.33008,0 h 5.59766 v 30.78516 35.45117 h -5.59766 v -35.45117 z m 9.33008,0 h 5.5957 v 30.78516 35.45117 h -5.5957 v -35.45117 z m 9.32813,0 h 5.59765 v 30.78516 35.45117 h -5.59765 v -35.45117 z m 9.32812,0 h 14.92773 v 30.78516 35.45117 H 221.65039 V 162.21875 Z M 81.714844,150.0918 H 105.9707 v 12.12695 16.79297 H 72.384766 v -5.59766 h 9.330078 v -11.19531 z m 46.644536,41.98242 h 5.59765 v 37.31445 h 46.64649 v 5.59766 h -52.24414 z m 9.33007,0 h 5.59766 v 27.98633 h 37.31641 v 5.59765 h -42.91407 z m 9.33008,0 h 5.5957 v 18.65625 h 27.98829 v 5.59765 h -33.58399 z m 9.32813,0 h 5.59765 v 9.32812 h 18.65821 V 207 h -24.25586 z m 27.98632,9.32812 h 5.59766 V 207 h -5.59766 z m 9.33008,0 h 5.59766 V 207 h -5.59766 z m 9.33008,0 h 5.5957 V 207 h -5.5957 z m 9.32813,0 h 5.59765 V 207 h -5.59765 z m -27.98829,9.32813 h 5.59766 v 5.59765 h -5.59766 z m 9.33008,0 h 5.59766 v 5.59765 h -5.59766 z m 9.33008,0 h 5.5957 v 5.59765 h -5.5957 z m 9.32813,0 h 5.59765 v 5.59765 h -5.59765 z m -27.98829,9.33008 h 5.59766 v 5.59765 h -5.59766 z m 9.33008,0 h 5.59766 v 5.59765 h -5.59766 z m 9.33008,0 h 5.5957 v 5.59765 h -5.5957 z m 9.32813,0 h 5.59765 v 5.59765 h -5.59765 z m -27.98829,9.32812 h 5.59766 v 5.59766 h -5.59766 z m 9.33008,0 h 5.59766 v 5.59766 h -5.59766 z m 9.33008,0 h 5.5957 v 5.59766 h -5.5957 z m 9.32813,0 h 5.59765 v 5.59766 h -5.59765 z m -27.98829,9.33008 h 5.59766 v 65.30273 h 283.60742 v -37.3164 h 5.59766 v 42.91406 H 184.33398 Z m 9.33008,0 h 5.59766 v 55.97461 h 264.94726 v -27.98828 h 5.59766 v 33.58594 H 193.66406 Z m 9.33008,0 h 5.5957 v 46.64453 h 246.29102 v -18.6582 h 5.5957 v 24.25586 H 202.99414 Z m 9.32813,0 h 5.59765 v 37.31641 h 227.63086 v -9.33008 h 5.59766 v 14.92773 H 212.32227 Z m 223.89843,9.32813 h 5.59766 v 9.33007 5.59766 h -5.59766 z m 9.33008,0 h 5.59766 v 5.59765 h -5.59766 z m 0,9.33007 h 5.59766 v 5.59766 h -5.59766 z m 9.33008,0 h 5.5957 v 5.59766 h -5.5957 z m 9.32812,0 h 5.59766 v 5.59766 h -5.59766 z m 9.33008,0 h 5.59766 v 5.59766 h -5.59766 z"
             transform="matrix(7.5000002,0,0,-7.5000002,0,2610.0001)"
             id="path4651"
             inkscape:connector-curvature="0" /></g></g><g
         id="g6271"
         transform="matrix(0.09111927,0,0,-0.09111927,-9.9150789,250.7878)"
         style="display:inline"><g
           clip-path="url(#clipPath30)"
           id="g6269"><path
             inkscape:connector-curvature="0"
             id="path6267"
             transform="matrix(7.5000002,0,0,-7.5000002,213.40798,2636.0254)"
             d="m 613.00781,140.86328 c -1.20369,0.0484 -2.47728,0.1079 -3.73047,0.16406 v 24.66211 100.75586 H 454.41211 v -5.59765 h 149.26562 v -95.15821 -24.38476 c -1.19895,0.061 -2.4928,0.13952 -3.73046,0.20703 v 24.17773 91.42578 H 454.41211 v -91.42578 h -3.73047 v 91.42578 h -5.59766 v -91.42578 -8.65039 c -1.23582,0.16826 -2.49109,0.3466 -3.73242,0.51758 v 8.13281 91.42578 h -5.59765 v -91.42578 -7.35547 c -1.24349,0.17427 -2.4839,0.34647 -3.73243,0.52344 v 6.83203 91.42578 h -5.5957 v -91.42578 -6.02734 c -1.24548,0.17954 -2.48238,0.35293 -3.73242,0.53516 v 5.49218 82.09766 h -5.59766 v -82.09766 -4.66406 c -1.24249,0.18415 -2.48585,0.36984 -3.73242,0.55664 v 4.10742 82.09766 h -5.59766 v -82.09766 -3.26562 c -1.23939,0.18878 -2.48745,0.38478 -3.73046,0.57617 v 2.68945 82.09766 H 258.5 v -57.08203 c -1.24575,0.28977 -2.48682,0.58443 -3.73047,0.87695 v 59.93555 h 149.26563 v 18.6582 h 9.32812 v 5.59766 H 193.19531 v -33.58399 h 55.97657 v -49.28906 c -1.2472,0.29834 -2.48772,0.60316 -3.73243,0.9043 v 44.65234 h -52.24414 v -5.59765 h 46.64649 v -37.6875 c -1.24262,0.30582 -2.49265,0.60541 -3.73242,0.91406 v 33.04297 h -42.91407 v -5.59766 h 37.31836 v -26.02734 c -1.24465,0.31532 -2.49103,0.62906 -3.73242,0.94726 v 21.34766 h -33.58594 v -5.59766 h 27.98828 v -14.30078 c -1.24737,0.32548 -2.48874,0.65595 -3.73242,0.98438 v 9.58593 h -24.25586 v -2.91797 c -1.24241,0.35567 -2.49311,0.70565 -3.73047,1.06446 v 1.85351 h -5.59765 v -0.20312 c -4.38968,1.29818 -8.74308,2.61656 -13.06055,3.95508 v 5.57617 h -5.59766 v -3.8418 c -1.25445,0.39708 -2.48483,0.80646 -3.73242,1.20703 v 2.63477 h -5.59765 v -0.82227 c -4.55988,1.49603 -9.08017,3.01083 -13.53711,4.55469 h 9.80664 v 5.59766 h -25.38867 c -3.31932,1.22932 -6.6022,2.47245 -9.84961,3.73047 h 35.23828 v 5.59765 h -49.22071 c -2.26586,0.93976 -4.530656,1.87901 -6.753902,2.83399 v 0.89843 h 55.974612 v 74.63282 h 302.26367 v -46.64649 h 158.5957 V 165.68945 Z m -401.15429,61.49805 c -3.0698,0.8255 -6.11609,1.66793 -9.16016,2.51172 h 9.16016 z m -37.31446,11.83984 h 5.59571 v 5.59766 h -5.59571 z m 9.32813,0 h 5.59765 v 5.59766 h -5.59765 z m -27.98828,9.33008 h 5.59765 v 5.59766 h -5.59765 z m 9.33007,0 h 5.59766 v 5.59766 h -5.59766 z m 9.33008,0 h 5.59571 v 5.59766 h -5.59571 z m 9.32813,0 h 5.59765 v 5.59766 h -5.59765 z m -27.98828,9.32813 h 5.59765 v 5.59765 h -5.59765 z m 9.33007,0 h 5.59766 v 5.59765 h -5.59766 z m 9.33008,0 h 5.59571 v 5.59765 h -5.59571 z m 9.32813,0 h 5.59765 v 5.59765 h -5.59765 z m -27.98828,9.33007 h 5.59765 v 65.30274 h 283.60742 v -37.31641 h 5.59766 v 42.91406 H 155.87891 Z m 9.33007,0 h 5.59766 v 55.97461 h 264.94727 v -27.98828 h 5.59765 v 33.58594 H 165.20898 Z m 9.33008,0 h 5.59571 v 46.64453 h 246.29101 v -18.6582 h 5.5957 v 24.25586 H 174.53906 Z m 9.32813,0 h 5.59765 v 37.31641 H 417.0957 v -9.33008 h 5.59766 v 14.92774 H 183.86719 Z m 223.89843,9.32813 h 5.59766 v 9.33008 5.59765 h -5.59766 z m 9.33008,0 h 5.59766 v 5.59765 h -5.59766 z m 0,9.33008 h 5.59766 v 5.59765 h -5.59766 z m 9.33008,0 h 5.5957 v 5.59765 h -5.5957 z m 9.32813,0 h 5.59765 v 5.59765 h -5.59765 z m 9.33007,0 h 5.59766 v 5.59765 h -5.59766 z"
             style="opacity:0.97000002;fill:url(#linearGradient6293);fill-opacity:1;fill-rule:nonzero;stroke:none;stroke-width:0.13333333" /></g></g></g><g
       id="g6283" /><flowRoot
       xml:space="preserve"
       id="flowRoot6295"
       style="font-style:normal;font-variant:normal;font-weight:normal;font-stretch:normal;font-size:40px;line-height:1.25;font-family:'DejaVu Sans Mono';-inkscape-font-specification:'DejaVu Sans Mono';letter-spacing:0px;word-spacing:0px;fill:#000000;fill-opacity:1;stroke:none"
       transform="translate(8.833301,42.203549)"><flowRegion
         id="flowRegion6297"
         style="font-style:normal;font-variant:normal;font-weight:normal;font-stretch:normal;font-family:'DejaVu Sans Mono';-inkscape-font-specification:'DejaVu Sans Mono'"><rect
           id="rect6299"
           width="348.16656"
           height="88.582397"
           x="294.70148"
           y="237.82507"
           style="font-style:normal;font-variant:normal;font-weight:normal;font-stretch:normal;font-family:'DejaVu Sans Mono';-inkscape-font-specification:'DejaVu Sans Mono'" /></flowRegion><flowPara
         id="flowPara6301"
         style="font-style:normal;font-variant:normal;font-weight:normal;font-stretch:normal;font-family:FZShuTi;-inkscape-font-specification:FZShuTi" /></flowRoot><flowRoot
       xml:space="preserve"
       id="flowRoot3755"
       style="font-style:normal;font-variant:normal;font-weight:normal;font-stretch:normal;font-size:40px;line-height:1.25;font-family:FZShuTi;-inkscape-font-specification:FZShuTi;letter-spacing:0px;word-spacing:0px;fill:#000000;fill-opacity:1;stroke:none"><flowRegion
         id="flowRegion3757"
         style="font-style:normal;font-variant:normal;font-weight:normal;font-stretch:normal;font-family:FZShuTi;-inkscape-font-specification:FZShuTi"><rect
           id="rect3759"
           width="208.56406"
           height="65.759018"
           x="340.57281"
           y="270.95398"
           style="font-style:normal;font-variant:normal;font-weight:normal;font-stretch:normal;font-family:FZShuTi;-inkscape-font-specification:FZShuTi" /></flowRegion><flowPara
         id="flowPara3761" /></flowRoot></g><g
     inkscape:groupmode="layer"
     id="layer3"
     inkscape:label="texts"
     style="display:inline"
     transform="translate(-12.524059,-6.5791252)"><g
       style="display:inline"
       id="g4705"
       transform="matrix(0.88460201,0,0,0.88460201,-251.52933,-17.398851)"><g
         id="g943"
         transform="translate(231.44064,25.88997)"><g
           aria-label="M"
           transform="matrix(1.1963056,0,0,1.1963056,-66.491864,-70.703706)"
           style="font-style:normal;font-variant:normal;font-weight:normal;font-stretch:normal;font-size:40px;line-height:1.25;font-family:FZShuTi;-inkscape-font-specification:FZShuTi;letter-spacing:0px;word-spacing:0px;fill:#373e48;fill-opacity:1;stroke:none"
           id="flowRoot3763"><path
             d="m 340.57227,248.23047 h 5.8789 l 7.44141,19.84375 7.48047,-19.84375 h 5.8789 v 29.16015 h -3.84765 v -25.60546 l -7.51953,20 h -3.96485 l -7.51953,-20 v 25.60546 h -3.82812 z"
             style=""
             id="path1195" /></g><g
           aria-label="T"
           transform="matrix(1.1963056,0,0,1.1963056,-58.524141,-72.278534)"
           style="font-style:normal;font-weight:normal;font-size:40px;line-height:1.25;font-family:sans-serif;letter-spacing:0px;word-spacing:0px;fill:#373e48;fill-opacity:1;stroke:none"
           id="flowRoot3775"><path
             d="m 396.40039,249.70312 h 24.66797 v 3.32032 H 410.7168 v 25.83984 h -3.96485 v -25.83984 h -10.35156 z"
             style="font-style:normal;font-variant:normal;font-weight:normal;font-stretch:normal;font-family:FZShuTi;-inkscape-font-specification:FZShuTi;fill:#373e48"
             id="path1198" /></g><g
           aria-label="EI"
           transform="matrix(0.90200977,0,0,0.90200977,-32.639369,-0.52572191)"
           style="font-style:normal;font-weight:normal;font-size:40px;line-height:1.25;font-family:sans-serif;letter-spacing:0px;word-spacing:0px;fill:#373e48;fill-opacity:1;stroke:none"
           id="flowRoot3783"><path
             d="m 457.85937,262.46289 h 18.4375 v 3.32031 h -14.49218 v 8.63282 h 13.88672 v 3.32031 h -13.88672 v 10.5664 h 14.84375 v 3.32032 h -18.78907 z"
             style="font-style:normal;font-variant:normal;font-weight:normal;font-stretch:normal;font-family:FZShuTi;-inkscape-font-specification:FZShuTi;fill:#373e48"
             id="path1201" /><path
             d="m 483.17187,262.46289 h 3.94532 v 29.16016 h -3.94532 z"
             style="font-style:normal;font-variant:normal;font-weight:normal;font-stretch:normal;font-family:FZShuTi;-inkscape-font-specification:FZShuTi;fill:#373e48"
             id="path1203" /></g><g
           aria-label="ING"
           transform="matrix(0.90200977,0,0,0.90200977,139.10934,-39.155608)"
           style="font-style:normal;font-weight:normal;font-size:40px;line-height:1.25;font-family:sans-serif;letter-spacing:0px;word-spacing:0px;fill:#373e48;fill-opacity:1;stroke:none"
           id="flowRoot3791"><path
             d="m 340.57227,305.15625 h 3.94531 v 29.16016 h -3.94531 z"
             style="font-style:normal;font-variant:normal;font-weight:normal;font-stretch:normal;font-family:FZShuTi;-inkscape-font-specification:FZShuTi;fill:#373e48"
             id="path1206" /><path
             d="m 352.36914,305.15625 h 5.3125 l 12.92969,24.39453 v -24.39453 h 3.82812 v 29.16016 h -5.3125 l -12.92968,-24.39454 v 24.39454 h -3.82813 z"
             style="font-style:normal;font-variant:normal;font-weight:normal;font-stretch:normal;font-family:FZShuTi;-inkscape-font-specification:FZShuTi;fill:#373e48"
             id="path1208" /><path
             d="m 402.17383,330.15625 v -7.83203 h -6.44531 v -3.24219 h 10.35156 v 12.51953 q -2.28516,1.6211 -5.03906,2.46094 -2.75391,0.82031 -5.87891,0.82031 -6.83594,0 -10.70313,-3.98437 -3.84765,-4.00391 -3.84765,-11.13282 0,-7.14843 3.84765,-11.13281 3.86719,-4.0039 10.70313,-4.0039 2.85156,0 5.41016,0.70312 2.57812,0.70313 4.74609,2.07031 v 4.19922 q -2.1875,-1.85547 -4.64844,-2.79297 -2.46094,-0.9375 -5.17578,-0.9375 -5.35156,0 -8.04687,2.98828 -2.67579,2.98829 -2.67579,8.90625 0,5.89844 2.67579,8.88672 2.69531,2.98828 8.04687,2.98828 2.08984,0 3.73047,-0.35156 1.64062,-0.37109 2.94922,-1.13281 z"
             style="font-style:normal;font-variant:normal;font-weight:normal;font-stretch:normal;font-family:FZShuTi;-inkscape-font-specification:FZShuTi;fill:#373e48"
             id="path1210" /></g><g
           aria-label="RUNK"
           transform="matrix(0.90200977,0,0,0.90200977,80.746199,5.1098166)"
           style="font-style:normal;font-weight:normal;font-size:40px;line-height:1.25;font-family:sans-serif;letter-spacing:0px;word-spacing:0px;fill:#373e48;fill-opacity:1;stroke:none"
           id="flowRoot3799"><path
             d="m 517.81641,271.57031 q 1.26953,0.42969 2.46093,1.83594 1.21094,1.40625 2.42188,3.86719 l 4.0039,7.96875 h -4.23828 l -3.73047,-7.48047 q -1.44531,-2.92969 -2.8125,-3.88672 -1.34765,-0.95703 -3.6914,-0.95703 h -4.29688 v 12.32422 h -3.94531 v -29.16016 h 8.90625 q 5,0 7.46094,2.08984 2.46094,2.08985 2.46094,6.3086 0,2.7539 -1.28907,4.57031 -1.26953,1.81641 -3.71093,2.51953 z m -9.88282,-12.24609 v 10.35156 h 4.96094 q 2.85156,0 4.29688,-1.30859 1.46484,-1.32813 1.46484,-3.88672 0,-2.5586 -1.46484,-3.84766 -1.44532,-1.30859 -4.29688,-1.30859 z"
             style="font-style:normal;font-variant:normal;font-weight:normal;font-stretch:normal;font-family:FZShuTi;-inkscape-font-specification:FZShuTi;fill:#373e48"
             id="path1213" /><path
             d="m 531.35156,256.08203 h 3.96485 v 17.71484 q 0,4.6875 1.69921,6.75782 1.69922,2.05078 5.50782,2.05078 3.78906,0 5.48828,-2.05078 1.69922,-2.07032 1.69922,-6.75782 v -17.71484 h 3.96484 v 18.20313 q 0,5.70312 -2.83203,8.61328 -2.8125,2.91015 -8.32031,2.91015 -5.52735,0 -8.35938,-2.91015 -2.8125,-2.91016 -2.8125,-8.61328 z"
             style="font-style:normal;font-variant:normal;font-weight:normal;font-stretch:normal;font-family:FZShuTi;-inkscape-font-specification:FZShuTi;fill:#373e48"
             id="path1215" /><path
             d="m 561.09766,256.08203 h 5.3125 l 12.92968,24.39453 v -24.39453 h 3.82813 v 29.16016 h -5.3125 l -12.92969,-24.39453 v 24.39453 h -3.82812 z"
             style="font-style:normal;font-variant:normal;font-weight:normal;font-stretch:normal;font-family:FZShuTi;-inkscape-font-specification:FZShuTi;fill:#373e48"
             id="path1217" /><path
             d="m 591.01953,256.08203 h 3.94531 v 12.32422 l 13.08594,-12.32422 h 5.07813 l -14.47266,13.59375 15.50781,15.56641 h -5.19531 l -14.00391,-14.04297 v 14.04297 h -3.94531 z"
             style="font-style:normal;font-variant:normal;font-weight:normal;font-stretch:normal;font-family:FZShuTi;-inkscape-font-specification:FZShuTi;fill:#373e48"
             id="path1219" /></g><g
           aria-label="T"
           transform="matrix(1.1963056,0,0,1.1963056,29.135011,-72.278534)"
           style="font-style:normal;font-weight:normal;font-size:40px;line-height:1.25;font-family:sans-serif;letter-spacing:0px;word-spacing:0px;fill:#373e48;fill-opacity:1;stroke:none"
           id="flowRoot3813"><path
             d="m 396.40039,249.70312 h 24.66797 v 3.32032 H 410.7168 v 25.83984 h -3.96485 v -25.83984 h -10.35156 z"
             style="font-style:normal;font-variant:normal;font-weight:normal;font-stretch:normal;font-family:FZShuTi;-inkscape-font-specification:FZShuTi;fill:#373e48"
             id="path1222" /></g><g
           aria-label="REFERENCE MANAGEMENT TOOL"
           transform="translate(36.314682,-21.592514)"
           style="font-style:normal;font-weight:normal;font-size:40px;line-height:1.25;font-family:sans-serif;letter-spacing:0px;word-spacing:0px;fill:#000000;fill-opacity:1;stroke:none"
           id="flowRoot4620"><path
             d="m 310.9707,302.87435 q 0.55013,0.1862 1.06641,0.79557 0.52474,0.60938 1.04948,1.67578 l 1.73503,3.45313 h -1.83659 l -1.61654,-3.24154 q -0.6263,-1.26953 -1.21875,-1.68424 -0.58398,-0.41472 -1.59961,-0.41472 h -1.86198 v 5.3405 h -1.70963 v -12.63607 h 3.85937 q 2.16667,0 3.23307,0.9056 1.06641,0.9056 1.06641,2.73372 0,1.19336 -0.55859,1.98047 -0.55013,0.78711 -1.60808,1.0918 z m -4.28255,-5.30664 v 4.48568 h 2.14974 q 1.23568,0 1.86198,-0.56706 0.63477,-0.57552 0.63477,-1.68425 0,-1.10872 -0.63477,-1.66731 -0.6263,-0.56706 -1.86198,-0.56706 z"
             style="font-style:normal;font-variant:normal;font-weight:normal;font-stretch:normal;font-size:17.33333397px;font-family:FZShuTi;-inkscape-font-specification:FZShuTi"
             id="path1225" /><path
             d="m 317.0306,296.16276 h 7.98958 v 1.4388 h -6.27994 v 3.74089 h 6.01757 v 1.4388 h -6.01757 v 4.57878 h 6.43229 v 1.4388 h -8.14193 z"
             style="font-style:normal;font-variant:normal;font-weight:normal;font-stretch:normal;font-size:17.33333397px;font-family:FZShuTi;-inkscape-font-specification:FZShuTi"
             id="path1227" /><path
             d="m 327.99935,296.16276 h 7.26172 v 1.4388 h -5.55208 v 3.72396 h 5.01041 v 1.4388 h -5.01041 v 6.03451 h -1.70964 z"
             style="font-style:normal;font-variant:normal;font-weight:normal;font-stretch:normal;font-size:17.33333397px;font-family:FZShuTi;-inkscape-font-specification:FZShuTi"
             id="path1229" /><path
             d="m 337.98633,296.16276 h 7.98958 v 1.4388 h -6.27995 v 3.74089 h 6.01758 v 1.4388 h -6.01758 v 4.57878 h 6.4323 v 1.4388 h -8.14193 z"
             style="font-style:normal;font-variant:normal;font-weight:normal;font-stretch:normal;font-size:17.33333397px;font-family:FZShuTi;-inkscape-font-specification:FZShuTi"
             id="path1231" /><path
             d="m 354.94727,302.87435 q 0.55013,0.1862 1.0664,0.79557 0.52474,0.60938 1.04948,1.67578 l 1.73503,3.45313 h -1.83659 l -1.61654,-3.24154 q -0.6263,-1.26953 -1.21875,-1.68424 -0.58398,-0.41472 -1.59961,-0.41472 h -1.86198 v 5.3405 h -1.70963 v -12.63607 h 3.85937 q 2.16667,0 3.23308,0.9056 1.0664,0.9056 1.0664,2.73372 0,1.19336 -0.55859,1.98047 -0.55013,0.78711 -1.60807,1.0918 z m -4.28256,-5.30664 v 4.48568 h 2.14974 q 1.23568,0 1.86198,-0.56706 0.63477,-0.57552 0.63477,-1.68425 0,-1.10872 -0.63477,-1.66731 -0.6263,-0.56706 -1.86198,-0.56706 z"
             style="font-style:normal;font-variant:normal;font-weight:normal;font-stretch:normal;font-size:17.33333397px;font-family:FZShuTi;-inkscape-font-specification:FZShuTi"
             id="path1233" /><path
             d="m 361.00716,296.16276 h 7.98959 v 1.4388 h -6.27995 v 3.74089 h 6.01758 v 1.4388 h -6.01758 v 4.57878 h 6.43229 v 1.4388 h -8.14193 z"
             style="font-style:normal;font-variant:normal;font-weight:normal;font-stretch:normal;font-size:17.33333397px;font-family:FZShuTi;-inkscape-font-specification:FZShuTi"
             id="path1235" /><path
             d="m 371.97591,296.16276 h 2.30209 l 5.60286,10.57096 v -10.57096 h 1.65886 v 12.63607 h -2.30209 l -5.60286,-10.57097 v 10.57097 h -1.65886 z"
             style="font-style:normal;font-variant:normal;font-weight:normal;font-stretch:normal;font-size:17.33333397px;font-family:FZShuTi;-inkscape-font-specification:FZShuTi"
             id="path1237" /><path
             d="m 394.4043,297.13607 v 1.80273 q -0.86328,-0.80403 -1.84505,-1.20182 -0.97331,-0.39779 -2.07357,-0.39779 -2.16666,0 -3.31771,1.32878 -1.15104,1.32031 -1.15104,3.82552 0,2.49674 1.15104,3.82552 1.15105,1.32031 3.31771,1.32031 1.10026,0 2.07357,-0.39778 0.98177,-0.39779 1.84505,-1.20183 v 1.78581 q -0.89713,0.60938 -1.90429,0.91406 -0.9987,0.30469 -2.11589,0.30469 -2.86914,0 -4.51953,-1.75195 -1.65039,-1.76042 -1.65039,-4.79883 0,-3.04688 1.65039,-4.79883 1.65039,-1.76042 4.51953,-1.76042 1.13411,0 2.13281,0.30469 1.00716,0.29623 1.88737,0.89714 z"
             style="font-style:normal;font-variant:normal;font-weight:normal;font-stretch:normal;font-size:17.33333397px;font-family:FZShuTi;-inkscape-font-specification:FZShuTi"
             id="path1239" /><path
             d="m 397.06185,296.16276 h 7.98959 v 1.4388 h -6.27995 v 3.74089 h 6.01758 v 1.4388 h -6.01758 v 4.57878 h 6.43229 v 1.4388 h -8.14193 z"
             style="font-style:normal;font-variant:normal;font-weight:normal;font-stretch:normal;font-size:17.33333397px;font-family:FZShuTi;-inkscape-font-specification:FZShuTi"
             id="path1241" /><path
             d="m 413.54883,296.16276 h 2.54752 l 3.22461,8.59896 3.24154,-8.59896 h 2.54753 v 12.63607 h -1.66732 v -11.09571 l -3.25846,8.66667 h -1.7181 l -3.25847,-8.66667 v 11.09571 h -1.65885 z"
             style="font-style:normal;font-variant:normal;font-weight:normal;font-stretch:normal;font-size:17.33333397px;font-family:FZShuTi;-inkscape-font-specification:FZShuTi"
             id="path1243" /><path
             d="m 432.73568,297.847 -2.31901,6.28842 h 4.64649 z m -0.96484,-1.68424 h 1.93815 l 4.81576,12.63607 h -1.77735 l -1.15104,-3.24154 h -5.69596 l -1.15105,3.24154 h -1.80273 z"
             style="font-style:normal;font-variant:normal;font-weight:normal;font-stretch:normal;font-size:17.33333397px;font-family:FZShuTi;-inkscape-font-specification:FZShuTi"
             id="path1245" /><path
             d="m 440.36133,296.16276 h 2.30208 l 5.60287,10.57096 v -10.57096 h 1.65885 v 12.63607 h -2.30208 l -5.60287,-10.57097 v 10.57097 h -1.65885 z"
             style="font-style:normal;font-variant:normal;font-weight:normal;font-stretch:normal;font-size:17.33333397px;font-family:FZShuTi;-inkscape-font-specification:FZShuTi"
             id="path1247" /><path
             d="m 457.55079,297.847 -2.31901,6.28842 h 4.64649 z m -0.96484,-1.68424 h 1.93815 l 4.81575,12.63607 h -1.77734 l -1.15104,-3.24154 h -5.69596 l -1.15105,3.24154 h -1.80273 z"
             style="font-style:normal;font-variant:normal;font-weight:normal;font-stretch:normal;font-size:17.33333397px;font-family:FZShuTi;-inkscape-font-specification:FZShuTi"
             id="path1249" /><path
             d="m 473.50456,306.99609 v -3.39388 h -2.79297 v -1.40494 h 4.48568 v 5.42513 q -0.99024,0.70247 -2.1836,1.0664 -1.19336,0.35547 -2.54752,0.35547 -2.96224,0 -4.63802,-1.72656 -1.66732,-1.73503 -1.66732,-4.82422 0,-3.09766 1.66732,-4.82422 1.67578,-1.73503 4.63802,-1.73503 1.23567,0 2.3444,0.30469 1.11718,0.30469 2.05664,0.89714 v 1.81966 q -0.94792,-0.80404 -2.01433,-1.21029 -1.0664,-0.40625 -2.24283,-0.40625 -2.31901,0 -3.48698,1.29492 -1.15951,1.29493 -1.15951,3.85938 0,2.55599 1.15951,3.85091 1.16797,1.29492 3.48698,1.29492 0.9056,0 1.61653,-0.15234 0.71094,-0.16081 1.278,-0.49089 z"
             style="font-style:normal;font-variant:normal;font-weight:normal;font-stretch:normal;font-size:17.33333397px;font-family:FZShuTi;-inkscape-font-specification:FZShuTi"
             id="path1251" /><path
             d="m 478.3457,296.16276 h 7.98959 v 1.4388 h -6.27995 v 3.74089 h 6.01758 v 1.4388 h -6.01758 v 4.57878 h 6.43229 v 1.4388 h -8.14193 z"
             style="font-style:normal;font-variant:normal;font-weight:normal;font-stretch:normal;font-size:17.33333397px;font-family:FZShuTi;-inkscape-font-specification:FZShuTi"
             id="path1253" /><path
             d="m 489.31445,296.16276 h 2.54753 l 3.22461,8.59896 3.24154,-8.59896 h 2.54752 v 12.63607 h -1.66732 v -11.09571 l -3.25846,8.66667 h -1.7181 l -3.25846,-8.66667 v 11.09571 h -1.65886 z"
             style="font-style:normal;font-variant:normal;font-weight:normal;font-stretch:normal;font-size:17.33333397px;font-family:FZShuTi;-inkscape-font-specification:FZShuTi"
             id="path1255" /><path
             d="m 504.278,296.16276 h 7.98958 v 1.4388 h -6.27994 v 3.74089 h 6.01757 v 1.4388 h -6.01757 v 4.57878 h 6.43229 v 1.4388 H 504.278 Z"
             style="font-style:normal;font-variant:normal;font-weight:normal;font-stretch:normal;font-size:17.33333397px;font-family:FZShuTi;-inkscape-font-specification:FZShuTi"
             id="path1257" /><path
             d="m 515.24675,296.16276 h 2.30208 l 5.60287,10.57096 v -10.57096 h 1.65885 v 12.63607 h -2.30208 l -5.60287,-10.57097 v 10.57097 h -1.65885 z"
             style="font-style:normal;font-variant:normal;font-weight:normal;font-stretch:normal;font-size:17.33333397px;font-family:FZShuTi;-inkscape-font-specification:FZShuTi"
             id="path1259" /><path
             d="m 526.46094,296.16276 h 10.68945 v 1.4388 h -4.48568 v 11.19727 h -1.7181 v -11.19727 h -4.48567 z"
             style="font-style:normal;font-variant:normal;font-weight:normal;font-stretch:normal;font-size:17.33333397px;font-family:FZShuTi;-inkscape-font-specification:FZShuTi"
             id="path1261" /><path
             d="m 542.57553,296.16276 h 10.68945 v 1.4388 h -4.48567 v 11.19727 h -1.7181 v -11.19727 h -4.48568 z"
             style="font-style:normal;font-variant:normal;font-weight:normal;font-stretch:normal;font-size:17.33333397px;font-family:FZShuTi;-inkscape-font-specification:FZShuTi"
             id="path1263" /><path
             d="m 560.05273,297.32227 q -1.86197,0 -2.96224,1.38802 -1.09179,1.38802 -1.09179,3.7832 0,2.38672 1.09179,3.77474 1.10027,1.38802 2.96224,1.38802 1.86198,0 2.94532,-1.38802 1.09179,-1.38802 1.09179,-3.77474 0,-2.39518 -1.09179,-3.7832 -1.08334,-1.38802 -2.94532,-1.38802 z m 0,-1.38803 q 2.65756,0 4.2487,1.78581 1.59115,1.77735 1.59115,4.77344 0,2.98763 -1.59115,4.77344 -1.59114,1.77734 -4.2487,1.77734 -2.66601,0 -4.26562,-1.77734 -1.59115,-1.77735 -1.59115,-4.77344 0,-2.99609 1.59115,-4.77344 1.59961,-1.78581 4.26562,-1.78581 z"
             style="font-style:normal;font-variant:normal;font-weight:normal;font-stretch:normal;font-size:17.33333397px;font-family:FZShuTi;-inkscape-font-specification:FZShuTi"
             id="path1265" /><path
             d="m 573.69598,297.32227 q -1.86198,0 -2.96224,1.38802 -1.09179,1.38802 -1.09179,3.7832 0,2.38672 1.09179,3.77474 1.10026,1.38802 2.96224,1.38802 1.86198,0 2.94532,-1.38802 1.09179,-1.38802 1.09179,-3.77474 0,-2.39518 -1.09179,-3.7832 -1.08334,-1.38802 -2.94532,-1.38802 z m 0,-1.38803 q 2.65756,0 4.2487,1.78581 1.59115,1.77735 1.59115,4.77344 0,2.98763 -1.59115,4.77344 -1.59114,1.77734 -4.2487,1.77734 -2.66601,0 -4.26562,-1.77734 -1.59115,-1.77735 -1.59115,-4.77344 0,-2.99609 1.59115,-4.77344 1.59961,-1.78581 4.26562,-1.78581 z"
             style="font-style:normal;font-variant:normal;font-weight:normal;font-stretch:normal;font-size:17.33333397px;font-family:FZShuTi;-inkscape-font-specification:FZShuTi"
             id="path1267" /><path
             d="m 582.2103,296.16276 h 1.70963 v 11.19727 h 6.153 v 1.4388 h -7.86263 z"
             style="font-style:normal;font-variant:normal;font-weight:normal;font-stretch:normal;font-size:17.33333397px;font-family:FZShuTi;-inkscape-font-specification:FZShuTi"
             id="path1269" /></g></g></g><text
       xml:space="preserve"
       style="font-style:normal;font-weight:normal;font-size:10.66666698px;line-height:1.25;font-family:sans-serif;letter-spacing:0px;word-spacing:0px;fill:#000000;fill-opacity:1;stroke:none"
       x="489.6716"
       y="272.76282"
       id="text914"><tspan
         sodipodi:role="line"
         x="489.6716"
         y="272.76282"
         id="tspan912"><tspan
           x="489.6716"
           y="272.76282"
           style="font-size:10.66666698px;line-height:1"
           id="tspan910">v0.1</tspan></tspan></text>
<text
       xml:space="preserve"
       style="font-style:normal;font-weight:normal;font-size:40px;line-height:1.25;font-family:sans-serif;letter-spacing:0px;word-spacing:0px;fill:#000000;fill-opacity:1;stroke:none"
       x="387.33304"
       y="284.76749"
       id="text920"><tspan
         sodipodi:role="line"
         x="387.33304"
         y="284.76749"
         id="tspan918"><tspan
           x="387.33304"
           y="284.76749"
           style="font-style:normal;font-variant:normal;font-weight:normal;font-stretch:normal;font-size:12px;font-family:FZShuTi;-inkscape-font-specification:FZShuTi"
           id="tspan916">Guangzhi XU 2018-2019</tspan></tspan></text>
</g></svg>