<?xml version="1.0" encoding="UTF-8" standalone="no"?>
<!-- Created with Inkscape (http://www.inkscape.org/) -->

<svg
   xmlns:osb="http://www.openswatchbook.org/uri/2009/osb"
   xmlns:dc="http://purl.org/dc/elements/1.1/"
   xmlns:cc="http://creativecommons.org/ns#"
   xmlns:rdf="http://www.w3.org/1999/02/22-rdf-syntax-ns#"
   xmlns:svg="http://www.w3.org/2000/svg"
   xmlns="http://www.w3.org/2000/svg"
   xmlns:xlink="http://www.w3.org/1999/xlink"
   xmlns:sodipodi="http://sodipodi.sourceforge.net/DTD/sodipodi-0.dtd"
   xmlns:inkscape="http://www.inkscape.org/namespaces/inkscape"
   version="1.1"
   id="svg2"
   xml:space="preserve"
   width="657.33331"
   height="348"
   viewBox="0 0 657.33331 348"
   sodipodi:docname="recaman_box_n_33_fillline.svg"
   inkscape:version="0.92.2 2405546, 2018-03-11"><metadata
     id="metadata8"><rdf:RDF><cc:Work
         rdf:about=""><dc:format>image/svg+xml</dc:format><dc:type
           rdf:resource="http://purl.org/dc/dcmitype/StillImage" /><dc:title></dc:title></cc:Work></rdf:RDF></metadata><defs
     id="defs6"><linearGradient
       inkscape:collect="always"
       id="linearGradient6166"><stop
         style="stop-color:#2a7fff;stop-opacity:1"
         offset="0"
         id="stop6162" /><stop
         id="stop6170"
         offset="0.153668"
         style="stop-color:#003373;stop-opacity:1" /><stop
         style="stop-color:#782167;stop-opacity:1"
         offset="0.28156495"
         id="stop6172" /><stop
         id="stop6174"
         offset="0.66760254"
         style="stop-color:#d40000;stop-opacity:1" /><stop
         style="stop-color:#ffcc00;stop-opacity:1"
         offset="0.90579599"
         id="stop6176" /><stop
         style="stop-color:#ffdd55;stop-opacity:1"
         offset="1"
         id="stop6164" /></linearGradient><linearGradient
       inkscape:collect="always"
       id="linearGradient4667-3"
       osb:paint="gradient"><stop
         style="stop-color:#ffffff;stop-opacity:0.6"
         offset="0"
         id="stop4663" /><stop
         style="stop-color:#1f77b4;stop-opacity:0;"
         offset="1"
         id="stop4665" /></linearGradient><clipPath
       clipPathUnits="userSpaceOnUse"
       id="clipPath20"><path
         d="M 8,7 V 2610 H 4930 V 7 Z"
         id="path18"
         inkscape:connector-curvature="0" /></clipPath><clipPath
       clipPathUnits="userSpaceOnUse"
       id="clipPath30"><path
         d="m 360.93,245.852 h 4464 v 2260 h -4464 z"
         id="path28"
         inkscape:connector-curvature="0" /></clipPath><clipPath
       clipPathUnits="userSpaceOnUse"
       id="clipPath102"><path
         d="M 8,7 V 2610 H 4930 V 7 Z"
         id="path100"
         inkscape:connector-curvature="0" /></clipPath><linearGradient
       inkscape:collect="always"
       xlink:href="#linearGradient6166"
       id="linearGradient6168"
       x1="49.994141"
       y1="164.55176"
       x2="641.46289"
       y2="164.55176"
       gradientUnits="userSpaceOnUse" /><linearGradient
       inkscape:collect="always"
       xlink:href="#linearGradient4667-3"
       id="linearGradient6293"
       gradientUnits="userSpaceOnUse"
       gradientTransform="translate(-28.454397,3.4700454)"
       x1="322.73993"
       y1="190.92413"
       x2="394.23053"
       y2="369.4501" /><filter
       style="color-interpolation-filters:sRGB"
       x="-0.25"
       width="1.5"
       y="-0.25"
       height="1.5"
       inkscape:menu="Non-realistic 3D Shaders"
       inkscape:menu-tooltip="Satiny glass effect"
       inkscape:label="Frosted Glass"
       id="filter6421"><feGaussianBlur
         in="SourceGraphic"
         result="result8"
         stdDeviation="5"
         id="feGaussianBlur6401" /><feComposite
         result="result18"
         operator="xor"
         in2="result8"
         in="SourceGraphic"
         id="feComposite6403" /><feComposite
         in2="result18"
         result="result16"
         operator="arithmetic"
         k2="0.5"
         k1="1"
         in="result8"
         id="feComposite6405" /><feComposite
         in="result16"
         operator="atop"
         result="result6"
         in2="result8"
         id="feComposite6407" /><feOffset
         in="result6"
         result="result17"
         id="feOffset6409" /><feDisplacementMap
         result="result4"
         scale="100"
         yChannelSelector="A"
         xChannelSelector="A"
         in="result17"
         in2="result16"
         id="feDisplacementMap6411" /><feComposite
         k3="1"
         in="result17"
         operator="arithmetic"
         result="result2"
         in2="result4"
         id="feComposite6413" /><feComposite
         operator="out"
         in="result2"
         result="fbSourceGraphic"
         in2="result17"
         id="feComposite6415" /><feComposite
         result="result14"
         operator="over"
         in2="fbSourceGraphic"
         in="fbSourceGraphic"
         id="feComposite6417" /><feComposite
         in="result14"
         operator="in"
         in2="SourceGraphic"
         result="result15"
         id="feComposite6419" /></filter></defs><sodipodi:namedview
     pagecolor="#ffffff"
     bordercolor="#666666"
     borderopacity="1"
     objecttolerance="10"
     gridtolerance="10"
     guidetolerance="10"
     inkscape:pageopacity="0"
     inkscape:pageshadow="2"
     inkscape:window-width="1920"
     inkscape:window-height="1023"
     id="namedview4"
     showgrid="false"
     inkscape:zoom="2.0377433"
     inkscape:cx="311.90846"
     inkscape:cy="174.7312"
     inkscape:window-x="0"
     inkscape:window-y="30"
     inkscape:window-maximized="1"
     inkscape:current-layer="layer1"
     showguides="false" /><g
     id="g10"
     inkscape:groupmode="layer"
     inkscape:label="ink_ext_XXXXXX"
     transform="matrix(1.3333333,0,0,-1.3333333,0,348)"
     style="display:inline"><g
       id="g14"
       transform="scale(0.1)"><g
         clip-path="url(#clipPath20)"
         id="g16" /></g><g
       id="g24"
       transform="matrix(0.06833945,0,0,0.06833945,-12.120875,50.527334)"><g
         clip-path="url(#clipPath30)"
         id="g26"><path
           style="opacity:0.97000002;fill:url(#linearGradient6168);fill-opacity:1;fill-rule:nonzero;stroke:none;stroke-width:0.13333333"
           d="m 180.60352,15.751953 v 65.304688 h -55.97461 v 81.162109 26.12305 h -5.59766 v -26.12305 -25.1875 H 68.652344 v 25.1875 7.46484 h -5.595703 v -7.46484 -6.5293 h -13.0625 v 6.5293 h 3.732421 v -2.79687 h 5.597657 v 2.79687 11.19531 h 9.328125 v 9.33008 H 109.70117 V 162.21875 146.35938 H 77.982422 v 15.85937 7.46484 h -5.597656 v -7.46484 -21.45703 h 42.914064 v 21.45703 29.85547 h 9.33008 v 46.64453 h 55.97461 v 74.63281 h 302.26367 v -46.64648 h 158.5957 V 162.21875 62.396484 H 473.53906 V 15.751953 Z m 3.73046,3.730469 h 285.47266 v 42.914062 h -5.59766 V 25.082031 H 189.93164 v 55.97461 h -5.59766 z m 9.33008,9.330078 h 266.8125 v 33.583984 h -5.5957 V 34.410156 H 199.26172 v 46.646485 h -5.59766 z m 9.33008,9.328125 h 248.1543 v 24.255859 h -5.59766 V 43.738281 H 208.58984 v 37.31836 h -5.5957 z m 9.32813,9.330078 H 441.81836 V 162.21875 244.31641 H 436.2207 V 162.21875 53.068359 H 217.91992 v 27.988282 h -5.59765 z m 9.32812,9.330078 H 432.49023 V 162.21875 244.31641 H 286.95508 V 162.21875 81.056641 h -65.30469 z m 223.90039,9.328125 h 5.59766 v 96.089844 82.09766 h -5.59766 v -82.09766 z m 9.33008,0 h 5.5957 v 5.597656 h -5.5957 z m 9.32812,0 h 5.59766 v 5.597656 h -5.59766 z m 9.33008,0 H 637.73242 V 162.21875 262.97461 H 482.86719 v -5.59766 H 632.13281 V 162.21875 71.726562 H 473.53906 Z m -18.6582,9.330078 h 5.5957 v 86.759766 91.42578 h -5.5957 v -91.42578 z m 9.32812,0 h 5.59766 v 86.759766 91.42578 h -5.59766 v -91.42578 z m 9.33008,0 h 154.86328 v 86.759766 91.42578 H 482.86719 v -91.42578 h -3.73047 v 91.42578 h -5.59766 v -91.42578 z m -345.17968,9.328125 h 52.24414 v 5.597657 h -46.64649 v 71.833984 26.12305 h -5.59765 v -26.12305 z m 55.9746,0 h 5.59766 v 5.597657 h -5.59766 z m 9.33008,0 h 5.59766 v 5.597657 h -5.59766 z m 9.33008,0 h 5.5957 v 5.597657 h -5.5957 z m 9.32813,0 h 5.59765 v 5.597657 h -5.59765 z m 9.32812,0 h 61.57422 v 77.431641 85.82813 h 149.26562 v 18.6582 h 9.32813 v 5.59765 H 221.65039 v -33.58398 h 55.97656 v -76.5 -71.833984 h -55.97656 z m -83.96094,9.328125 h 42.91407 v 5.59961 h -37.31641 v 62.503906 26.12305 h -5.59766 v -26.12305 z m 46.64453,0 h 5.59766 v 5.59961 h -5.59766 z m 9.33008,0 h 5.59766 v 5.59961 h -5.59766 z m 9.33008,0 h 5.5957 v 5.59961 h -5.5957 z m 9.32813,0 h 5.59765 v 5.59961 h -5.59765 z m 9.32812,0 h 52.24414 v 68.103516 72.76758 h -52.24414 v -5.59766 h 46.64649 V 162.21875 99.714844 h -46.64649 z m -74.63086,9.330076 h 33.58399 v 5.59766 h -27.98829 v 53.17578 26.12305 h -5.5957 v -26.12305 z m 37.31445,0 h 5.59766 v 5.59766 h -5.59766 z m 9.33008,0 h 5.59766 v 5.59766 h -5.59766 z m 9.33008,0 h 5.5957 v 5.59766 h -5.5957 z m 9.32813,0 h 5.59765 v 5.59766 h -5.59765 z m 9.32812,0 h 42.91406 v 58.77344 63.43945 h -42.91406 v -5.59765 h 37.31836 v -57.8418 -53.17578 h -37.31836 z m -65.30273,9.33008 h 24.25586 v 5.5957 h -18.65821 v 43.84766 26.12305 h -5.59765 v -26.12305 z m 27.98632,0 h 5.59766 v 5.5957 h -5.59766 z m 9.33008,0 h 5.59766 v 5.5957 h -5.59766 z m 9.33008,0 h 5.5957 v 5.5957 h -5.5957 z m 9.32813,0 h 5.59765 v 5.5957 h -5.59765 z m 9.32812,0 h 33.58594 v 49.44336 54.10937 h -33.58594 v -5.59765 h 27.98828 v -48.51172 -43.84766 h -27.98828 z m -55.97461,9.32813 h 14.92774 v 5.59765 h -9.33008 v 34.51758 26.12305 h -5.59766 v -26.12305 z m 18.6582,0 h 5.59766 v 5.59765 h -5.59766 z m 9.33008,0 h 5.59766 v 5.59765 h -5.59766 z m 9.33008,0 h 5.5957 v 5.59765 h -5.5957 z m 9.32813,0 h 5.59765 v 5.59765 h -5.59765 z m 9.32812,0 h 24.25586 V 162.21875 207 h -24.25586 v -5.59766 h 18.6582 v -39.18359 -34.51758 h -18.6582 z m -46.64453,9.33007 h 5.59766 v 30.78516 35.45117 h -14.92774 v -5.5957 h 9.33008 v -29.85547 z m 9.32812,0 h 5.59766 v 30.78516 35.45117 h -5.59766 v -35.45117 z m 9.33008,0 h 5.59766 v 30.78516 35.45117 h -5.59766 v -35.45117 z m 9.33008,0 h 5.5957 v 30.78516 35.45117 h -5.5957 v -35.45117 z m 9.32813,0 h 5.59765 v 30.78516 35.45117 h -5.59765 v -35.45117 z m 9.32812,0 h 14.92773 v 30.78516 35.45117 H 221.65039 V 162.21875 Z M 81.714844,150.0918 H 105.9707 v 12.12695 16.79297 H 72.384766 v -5.59766 h 9.330078 v -11.19531 z m 46.644536,41.98242 h 5.59765 v 37.31445 h 46.64649 v 5.59766 h -52.24414 z m 9.33007,0 h 5.59766 v 27.98633 h 37.31641 v 5.59765 h -42.91407 z m 9.33008,0 h 5.5957 v 18.65625 h 27.98829 v 5.59765 h -33.58399 z m 9.32813,0 h 5.59765 v 9.32812 h 18.65821 V 207 h -24.25586 z m 27.98632,9.32812 h 5.59766 V 207 h -5.59766 z m 9.33008,0 h 5.59766 V 207 h -5.59766 z m 9.33008,0 h 5.5957 V 207 h -5.5957 z m 9.32813,0 h 5.59765 V 207 h -5.59765 z m -27.98829,9.32813 h 5.59766 v 5.59765 h -5.59766 z m 9.33008,0 h 5.59766 v 5.59765 h -5.59766 z m 9.33008,0 h 5.5957 v 5.59765 h -5.5957 z m 9.32813,0 h 5.59765 v 5.59765 h -5.59765 z m -27.98829,9.33008 h 5.59766 v 5.59765 h -5.59766 z m 9.33008,0 h 5.59766 v 5.59765 h -5.59766 z m 9.33008,0 h 5.5957 v 5.59765 h -5.5957 z m 9.32813,0 h 5.59765 v 5.59765 h -5.59765 z m -27.98829,9.32812 h 5.59766 v 5.59766 h -5.59766 z m 9.33008,0 h 5.59766 v 5.59766 h -5.59766 z m 9.33008,0 h 5.5957 v 5.59766 h -5.5957 z m 9.32813,0 h 5.59765 v 5.59766 h -5.59765 z m -27.98829,9.33008 h 5.59766 v 65.30273 h 283.60742 v -37.3164 h 5.59766 v 42.91406 H 184.33398 Z m 9.33008,0 h 5.59766 v 55.97461 h 264.94726 v -27.98828 h 5.59766 v 33.58594 H 193.66406 Z m 9.33008,0 h 5.5957 v 46.64453 h 246.29102 v -18.6582 h 5.5957 v 24.25586 H 202.99414 Z m 9.32813,0 h 5.59765 v 37.31641 h 227.63086 v -9.33008 h 5.59766 v 14.92773 H 212.32227 Z m 223.89843,9.32813 h 5.59766 v 9.33007 5.59766 h -5.59766 z m 9.33008,0 h 5.59766 v 5.59765 h -5.59766 z m 0,9.33007 h 5.59766 v 5.59766 h -5.59766 z m 9.33008,0 h 5.5957 v 5.59766 h -5.5957 z m 9.32812,0 h 5.59766 v 5.59766 h -5.59766 z m 9.33008,0 h 5.59766 v 5.59766 h -5.59766 z"
           transform="matrix(7.5000002,0,0,-7.5000002,0,2610.0001)"
           id="path32"
           inkscape:connector-curvature="0" /></g></g><g
       id="g96"
       transform="scale(0.1)"><g
         clip-path="url(#clipPath102)"
         id="g98" /></g></g><g
     inkscape:groupmode="layer"
     id="layer1"
     inkscape:label="ink_ext_XXXXXX 1"
     style="display:inline"><g
       style="display:inline"
       transform="matrix(0.09111927,0,0,-0.09111927,-16.161166,280.63022)"
       id="g6271"><g
         id="g6269"
         clip-path="url(#clipPath30)"><path
           style="opacity:0.97000002;fill:url(#linearGradient6293);fill-opacity:1;fill-rule:nonzero;stroke:none;stroke-width:0.13333333"
           d="m 613.00781,140.86328 c -1.20369,0.0484 -2.47728,0.1079 -3.73047,0.16406 v 24.66211 100.75586 H 454.41211 v -5.59765 h 149.26562 v -95.15821 -24.38476 c -1.19895,0.061 -2.4928,0.13952 -3.73046,0.20703 v 24.17773 91.42578 H 454.41211 v -91.42578 h -3.73047 v 91.42578 h -5.59766 v -91.42578 -8.65039 c -1.23582,0.16826 -2.49109,0.3466 -3.73242,0.51758 v 8.13281 91.42578 h -5.59765 v -91.42578 -7.35547 c -1.24349,0.17427 -2.4839,0.34647 -3.73243,0.52344 v 6.83203 91.42578 h -5.5957 v -91.42578 -6.02734 c -1.24548,0.17954 -2.48238,0.35293 -3.73242,0.53516 v 5.49218 82.09766 h -5.59766 v -82.09766 -4.66406 c -1.24249,0.18415 -2.48585,0.36984 -3.73242,0.55664 v 4.10742 82.09766 h -5.59766 v -82.09766 -3.26562 c -1.23939,0.18878 -2.48745,0.38478 -3.73046,0.57617 v 2.68945 82.09766 H 258.5 v -57.08203 c -1.24575,0.28977 -2.48682,0.58443 -3.73047,0.87695 v 59.93555 h 149.26563 v 18.6582 h 9.32812 v 5.59766 H 193.19531 v -33.58399 h 55.97657 v -49.28906 c -1.2472,0.29834 -2.48772,0.60316 -3.73243,0.9043 v 44.65234 h -52.24414 v -5.59765 h 46.64649 v -37.6875 c -1.24262,0.30582 -2.49265,0.60541 -3.73242,0.91406 v 33.04297 h -42.91407 v -5.59766 h 37.31836 v -26.02734 c -1.24465,0.31532 -2.49103,0.62906 -3.73242,0.94726 v 21.34766 h -33.58594 v -5.59766 h 27.98828 v -14.30078 c -1.24737,0.32548 -2.48874,0.65595 -3.73242,0.98438 v 9.58593 h -24.25586 v -2.91797 c -1.24241,0.35567 -2.49311,0.70565 -3.73047,1.06446 v 1.85351 h -5.59765 v -0.20312 c -4.38968,1.29818 -8.74308,2.61656 -13.06055,3.95508 v 5.57617 h -5.59766 v -3.8418 c -1.25445,0.39708 -2.48483,0.80646 -3.73242,1.20703 v 2.63477 h -5.59765 v -0.82227 c -4.55988,1.49603 -9.08017,3.01083 -13.53711,4.55469 h 9.80664 v 5.59766 h -25.38867 c -3.31932,1.22932 -6.6022,2.47245 -9.84961,3.73047 h 35.23828 v 5.59765 h -49.22071 c -2.26586,0.93976 -4.530656,1.87901 -6.753902,2.83399 v 0.89843 h 55.974612 v 74.63282 h 302.26367 v -46.64649 h 158.5957 V 165.68945 Z m -401.15429,61.49805 c -3.0698,0.8255 -6.11609,1.66793 -9.16016,2.51172 h 9.16016 z m -37.31446,11.83984 h 5.59571 v 5.59766 h -5.59571 z m 9.32813,0 h 5.59765 v 5.59766 h -5.59765 z m -27.98828,9.33008 h 5.59765 v 5.59766 h -5.59765 z m 9.33007,0 h 5.59766 v 5.59766 h -5.59766 z m 9.33008,0 h 5.59571 v 5.59766 h -5.59571 z m 9.32813,0 h 5.59765 v 5.59766 h -5.59765 z m -27.98828,9.32813 h 5.59765 v 5.59765 h -5.59765 z m 9.33007,0 h 5.59766 v 5.59765 h -5.59766 z m 9.33008,0 h 5.59571 v 5.59765 h -5.59571 z m 9.32813,0 h 5.59765 v 5.59765 h -5.59765 z m -27.98828,9.33007 h 5.59765 v 65.30274 h 283.60742 v -37.31641 h 5.59766 v 42.91406 H 155.87891 Z m 9.33007,0 h 5.59766 v 55.97461 h 264.94727 v -27.98828 h 5.59765 v 33.58594 H 165.20898 Z m 9.33008,0 h 5.59571 v 46.64453 h 246.29101 v -18.6582 h 5.5957 v 24.25586 H 174.53906 Z m 9.32813,0 h 5.59765 v 37.31641 H 417.0957 v -9.33008 h 5.59766 v 14.92774 H 183.86719 Z m 223.89843,9.32813 h 5.59766 v 9.33008 5.59765 h -5.59766 z m 9.33008,0 h 5.59766 v 5.59765 h -5.59766 z m 0,9.33008 h 5.59766 v 5.59765 h -5.59766 z m 9.33008,0 h 5.5957 v 5.59765 h -5.5957 z m 9.32813,0 h 5.59765 v 5.59765 h -5.59765 z m 9.33007,0 h 5.59766 v 5.59765 h -5.59766 z"
           transform="matrix(7.5000002,0,0,-7.5000002,213.40798,2636.0254)"
           id="path6267"
           inkscape:connector-curvature="0" /></g></g><g
       id="g6283" /><flowRoot
       xml:space="preserve"
       id="flowRoot6295"
       style="font-style:normal;font-variant:normal;font-weight:normal;font-stretch:normal;font-size:40px;line-height:1.25;font-family:'DejaVu Sans Mono';-inkscape-font-specification:'DejaVu Sans Mono';letter-spacing:0px;word-spacing:0px;fill:#000000;fill-opacity:1;stroke:none"
       transform="translate(8.833301,42.203549)"><flowRegion
         id="flowRegion6297"
         style="font-style:normal;font-variant:normal;font-weight:normal;font-stretch:normal;font-family:'DejaVu Sans Mono';-inkscape-font-specification:'DejaVu Sans Mono'"><rect
           id="rect6299"
           width="348.16656"
           height="88.582397"
           x="294.70148"
           y="237.82507"
           style="font-style:normal;font-variant:normal;font-weight:normal;font-stretch:normal;font-family:'DejaVu Sans Mono';-inkscape-font-specification:'DejaVu Sans Mono'" /></flowRegion><flowPara
         id="flowPara6301"
         style="-inkscape-font-specification:Sagar;font-family:Sagar;font-weight:normal;font-style:normal;font-stretch:normal;font-variant:normal">MeiTing Trunk</flowPara></flowRoot></g></svg>